<svg xmlns="http://www.w3.org/2000/svg" width="93" height="93" viewBox="0 0 93 93">
    <g fill="#FFF" fill-rule="nonzero">
        <path d="M92.593 45.068l-.015-.025-13.805-21.798a2.727 2.727 0 0 0-2.302-1.266H16.53c-.947 0-1.811.492-2.302 1.266L.407 45.068l-.044.076a2.724 2.724 0 0 0 .424 3.272l.01.011 43.777 43.776.021.02a2.723 2.723 0 0 0 3.81 0l.022-.02 43.776-43.776.01-.01a2.725 2.725 0 0 0 .38-3.349zm-21.038-17.64l-8.912 14.259L51.95 27.428h19.606zM57.4 43.776H35.602L46.5 29.245 57.4 43.775zM41.05 27.428L30.357 41.687l-8.912-14.259h19.606zM16.514 29.82l8.722 13.956H7.675l8.839-13.956zM9.302 49.225h18.96l11.3 30.26-30.26-30.26zM46.5 82.488L34.078 49.225h24.844L46.5 82.488zm6.939-3.003l11.3-30.26H83.7l-30.26 30.26zm14.325-35.71l8.723-13.955 8.839 13.956H67.764zM46.5 0a2.725 2.725 0 0 0-2.724 2.725v10.898a2.725 2.725 0 0 0 5.449 0V2.725A2.725 2.725 0 0 0 46.5 0zM35.485 12.464l-7.707-4.982a2.725 2.725 0 1 0-2.958 4.576l7.707 4.982a2.725 2.725 0 1 0 2.958-4.576zM68.99 8.29a2.725 2.725 0 0 0-3.768-.808l-7.706 4.982a2.725 2.725 0 0 0 2.958 4.576l7.707-4.982a2.725 2.725 0 0 0 .809-3.767z"/>
    </g>
</svg>
